<svg width="100%" height="100%" viewBox="0 0 100 100" xmlns="http://www.w3.org/2000/svg">
  <rect width="100" height="100" rx="50" fill="#f3f4f6"/>
  <path d="M50 25C36.2 25 25 36.2 25 50C25 63.8 36.2 75 50 75C63.8 75 75 63.8 75 50C75 36.2 63.8 25 50 25ZM50 70C39 70 30 61 30 50C30 39 39 30 50 30C61 30 70 39 70 50C70 61 61 70 50 70Z" fill="#9ca3af"/>
  <path d="M60 45H55V40C55 37.2 52.8 35 50 35C47.2 35 45 37.2 45 40V45H40C37.2 45 35 47.2 35 50C35 52.8 37.2 55 40 55H45V60C45 62.8 47.2 65 50 65C52.8 65 55 62.8 55 60V55H60C62.8 55 65 52.8 65 50C65 47.2 62.8 45 60 45Z" fill="#9ca3af"/>
</svg> 